:SAMPLES-PER-SECOND 30
:FULLY-SPECIFIED
:DEGREES
202
root  -55.4497 39.0494 11.5224 172.891 38.1038 174.846
RightUpLeg  -12.9291 -29.3409 -8.55547
RightLeg  30.4924 1.22998 0.542328
RightFoot  -11.9677 -0.0841107 -0.651356
RightToes  2.91037e-010 0 -3.6325e-017
Spine  28.0215 -2.04794 5.4002
Spine1  10.9762 0.0587291 -2.82394
HEad  -31.9119 -23.0594 11.6244
LeftShoulder1  0.653039 1.67919 -29.6895
LeftArm  -9.90316 15.3296 -29.5845
LeftForeArm  93.8398 -78.5703 -109.405
LeftHand  0.043497 -0.713478 -0.760817
RightShoulder  -0.492869 -4.93811 27.5025
RightArm  -9.05188 -5.83289 35.7625
RightForeArm  86.3636 78.3245 108.553
RightHand  -0.130123 1.48985 -2.34835
LeftUpLeg  -1.22569 2.24439 15.0408
LeftLeg  18.5728 4.47098 2.12421
LeftFoot  -10.4644 0.0318057 1.35694
LeftToes  -7.53974e-010 3.3384e-011 -1.25048e-011
203
root  -54.4277 39.0372 11.4002 172.456 43.101 175.434
RightUpLeg  -11.6887 -25.1445 -6.46443
RightLeg  30.5332 1.55534 0.744656
RightFoot  -13.1713 -0.111334 -1.40423
RightToes  2.91037e-010 0 -3.6325e-017
Spine  27.4023 -2.36254 7.07712
Spine1  11.8642 0.27519 -2.81124
HEad  -30.7386 -21.762 10.617
LeftShoulder1  0.590668 1.85587 -29.7367
LeftArm  -9.34416 13.3204 -29.5711
LeftForeArm  86.7947 -78.8535 -103.534
LeftHand  0.0534268 -0.666307 -0.962134
RightShoulder  -0.423905 -4.75015 27.0771
RightArm  -8.89239 -4.84487 35.2519
RightForeArm  84.8938 78.29 108.28
RightHand  -0.132364 0.943215 -2.53666
LeftUpLeg  -2.89514 -0.315834 13.4127
LeftLeg  24.728 -1.54089 -0.434084
LeftFoot  -12.2035 0.0612774 -1.89765
LeftToes  -7.53974e-010 3.3384e-011 -1.25048e-011
204
root  -53.3125 39.2012 11.2555 171.922 48.1784 175.079
RightUpLeg  -9.88956 -21.1815 -4.99065
RightLeg  28.9199 2.16128 1.05418
RightFoot  -13.9308 -0.13421 -1.79735
RightToes  2.91037e-010 0 -3.6325e-017
Spine  26.5556 -2.1838 7.40344
Spine1  12.0838 0.583517 -2.82599
HEad  -28.644 -19.9211 8.89598
LeftShoulder1  0.526664 2.02844 -29.5985
LeftArm  -9.20523 12.2953 -29.7702
LeftForeArm  81.6347 -78.9467 -99.6709
LeftHand  -0.0158791 -0.386134 0.368522
RightShoulder  -0.388302 -4.64583 26.9837
RightArm  -8.37099 -3.37478 34.8257
RightForeArm  81.3676 78.4128 105.627
RightHand  -0.161894 0.878649 -3.06849
LeftUpLeg  -4.99898 0.889449 10.8772
LeftLeg  29.5414 -3.25438 -1.60301
LeftFoot  -12.6405 0.039391 -3.33213
LeftToes  -7.53974e-010 3.3384e-011 -1.25048e-011
205
root  -52.1252 39.4585 11.1166 171.003 53.3691 173.34
RightUpLeg  -8.2076 -16.8733 -4.18282
RightLeg  26.3401 2.71741 1.22007
RightFoot  -14.4038 -0.138776 -1.54448
RightToes  2.91037e-010 0 -3.6325e-017
Spine  25.2638 -1.3863 6.27158
Spine1  11.8483 1.00028 -2.72762
HEad  -26.8081 -17.9455 6.80916
LeftShoulder1  0.483433 2.15937 -29.8493
LeftArm  -9.10237 11.9751 -29.4707
LeftForeArm  79.7359 -78.9658 -98.2667
LeftHand  0.000286119 -0.0655904 -0.0202334
RightShoulder  -0.357687 -4.5654 26.6274
RightArm  -7.82302 -2.14819 34.554
RightForeArm  77.8639 78.4435 103.739
RightHand  -0.215039 1.73086 -3.65957
LeftUpLeg  -8.121 3.07375 7.28261
LeftLeg  32.5366 -0.767646 -0.183448
LeftFoot  -12.0276 0.0506215 -3.28472
LeftToes  -7.53974e-010 3.3384e-011 -1.25048e-011
206
root  -50.8599 39.7667 10.9304 170.032 57.9204 171.755
RightUpLeg  -5.54048 -13.9318 -3.6437
RightLeg  22.8028 3.96211 1.63878
RightFoot  -14.2542 -0.142592 -1.81785
RightToes  2.91037e-010 0 -3.6325e-017
Spine  24.0641 -0.996996 6.10302
Spine1  11.3528 1.49029 -3.67524
HEad  -25.0564 -15.8861 5.02226
LeftShoulder1  0.525305 2.03349 -29.6281
LeftArm  -9.54739 12.0358 -29.1272
LeftForeArm  78.2591 -78.9616 -97.4052
LeftHand  0.0586546 0.237048 -1.34674
RightShoulder  -0.391928 -4.66654 26.7016
RightArm  -8.07167 -1.8517 34.3128
RightForeArm  81.3633 78.3268 106.481
RightHand  -0.115852 0.857427 -2.2383
LeftUpLeg  -11.1245 5.06069 3.94845
LeftLeg  32.5752 1.43247 1.3244
LeftFoot  -11.1952 0.0707747 -2.08202
LeftToes  -7.53974e-010 3.3384e-011 -1.25048e-011
207
root  -49.5431 40.003 10.7356 168.604 61.4342 170.151
RightUpLeg  -2.18031 -11.6506 -3.44957
RightLeg  19.3853 5.00837 1.97656
RightFoot  -14.241 -0.152795 -2.2308
RightToes  2.91037e-010 0 -3.6325e-017
Spine  22.9373 -0.905113 5.92133
Spine1  11.1821 1.58629 -4.31064
HEad  -23.2463 -14.162 3.54838
LeftShoulder1  0.552987 1.93157 -29.0518
LeftArm  -10.3281 12.1256 -29.1206
LeftForeArm  77.5052 -78.9538 -97.0356
LeftHand  0.0758288 0.514087 -1.92656
RightShoulder  -0.345737 -4.54144 26.2441
RightArm  -8.77306 -2.24238 34.703
RightForeArm  86.2741 78.1178 110.333
RightHand  -0.0637591 0.435345 -1.3643
LeftUpLeg  -13.5394 6.23976 0.809019
LeftLeg  29.7392 3.18025 2.30492
LeftFoot  -10.7741 0.077841 -2.65383
LeftToes  -7.53974e-010 3.3384e-011 -1.25048e-011
208
root  -48.1626 40.1413 10.5382 166.786 64.7259 168.241
RightUpLeg  1.19498 -9.06096 -3.08394
RightLeg  16.258 5.51362 1.74855
RightFoot  -14.2836 -0.165721 -2.69992
RightToes  2.91037e-010 0 -3.6325e-017
Spine  21.7483 -0.648338 5.66016
Spine1  11.0697 1.83346 -4.8988
HEad  -21.8706 -12.8933 2.33482
LeftShoulder1  0.495636 2.08737 -28.8939
LeftArm  -10.7944 11.7859 -28.8208
LeftForeArm  75.6891 -78.9343 -96.1402
LeftHand  0.0915136 1.23492 -2.76822
RightShoulder  -0.366841 -4.61249 26.0399
RightArm  -9.41237 -2.88472 34.85
RightForeArm  87.8713 78.0124 111.769
RightHand  -0.0283379 2.0079 -0.612513
LeftUpLeg  -15.4451 7.49949 -1.96397
LeftLeg  24.9242 3.96145 2.35957
LeftFoot  -10.519 0.0868459 -3.35019
LeftToes  -7.53974e-010 3.3384e-011 -1.25048e-011
